<svg xmlns="http://www.w3.org/2000/svg" xmlns:xlink="http://www.w3.org/1999/xlink" width="500" zoomAndPan="magnify" viewBox="0 0 375 374.999991" height="500" preserveAspectRatio="xMidYMid meet" version="1.0"><defs><filter x="0%" y="0%" width="100%" height="100%" id="f9fc39fa3b"><feColorMatrix values="0 0 0 0 1 0 0 0 0 1 0 0 0 0 1 0 0 0 1 0" color-interpolation-filters="sRGB"/></filter><clipPath id="7fba2c2439"><path d="M 12 0.601562 L 282.800781 0.601562 L 282.800781 188.761719 L 12 188.761719 Z M 12 0.601562 " clip-rule="nonzero"/></clipPath><mask id="6173de7d5f"><g filter="url(#f9fc39fa3b)"><rect x="-128.5" width="540" fill="#000000" y="-175.499998" height="539.999987" fill-opacity="0.38"/></g></mask><clipPath id="90b67247a4"><path d="M 0.730469 0.808594 L 270.578125 0.808594 L 270.578125 187.773438 L 0.730469 187.773438 Z M 0.730469 0.808594 " clip-rule="nonzero"/></clipPath><clipPath id="2039faccd3"><rect x="0" width="271" y="0" height="189"/></clipPath><clipPath id="db6f35b7ec"><path d="M 0.65625 0.808594 L 270.503906 0.808594 L 270.503906 187.773438 L 0.65625 187.773438 Z M 0.65625 0.808594 " clip-rule="nonzero"/></clipPath><clipPath id="a06f692bbf"><rect x="0" width="283" y="0" height="189"/></clipPath></defs><g transform="matrix(1, 0, 0, 1, 46, 93)"><g clip-path="url(#a06f692bbf)"><g clip-path="url(#7fba2c2439)"><g mask="url(#6173de7d5f)"><g transform="matrix(1, 0, 0, 1, 12, 0)"><g clip-path="url(#2039faccd3)"><g clip-path="url(#90b67247a4)"><path fill="#000000" d="M 0.773438 187.773438 L 61.632812 94.261719 L 99.09375 94.261719 L 135.621094 150.492188 L 172.214844 94.261719 L 135.621094 38.089844 L 99.09375 94.261719 L 80.332031 65.496094 L 122.496094 0.808594 L 148.808594 0.808594 L 190.910156 65.496094 L 233.074219 0.808594 L 270.535156 0.808594 L 209.671875 94.261719 L 190.910156 123.023438 L 228.371094 123.023438 L 270.535156 187.773438 L 233.074219 187.773438 L 190.910156 123.023438 L 148.808594 187.773438 L 122.496094 187.773438 L 80.332031 123.023438 L 38.230469 187.773438 Z M 0.773438 187.773438 " fill-opacity="1" fill-rule="evenodd"/></g></g></g></g></g><g clip-path="url(#db6f35b7ec)"><path fill="#000000" d="M 0.699219 187.773438 L 61.5625 94.261719 L 99.019531 94.261719 L 135.550781 150.492188 L 172.140625 94.261719 L 135.550781 38.089844 L 99.019531 94.261719 L 80.261719 65.496094 L 122.425781 0.808594 L 148.738281 0.808594 L 190.839844 65.496094 L 233.003906 0.808594 L 270.460938 0.808594 L 209.601562 94.261719 L 190.839844 123.023438 L 228.296875 123.023438 L 270.460938 187.773438 L 233.003906 187.773438 L 190.839844 123.023438 L 148.738281 187.773438 L 122.425781 187.773438 L 80.261719 123.023438 L 38.160156 187.773438 Z M 0.699219 187.773438 " fill-opacity="1" fill-rule="evenodd"/></g></g></g></svg>