<svg xmlns="http://www.w3.org/2000/svg" xmlns:xlink="http://www.w3.org/1999/xlink" width="100" zoomAndPan="magnify" viewBox="0 0 75 44.999999" height="60" preserveAspectRatio="xMidYMid meet" version="1.0"><defs><filter x="0%" y="0%" width="100%" height="100%" id="cc49b35fbd"><feColorMatrix values="0 0 0 0 1 0 0 0 0 1 0 0 0 0 1 0 0 0 1 0" color-interpolation-filters="sRGB"/></filter><g/><clipPath id="b65ddfc0f6"><path d="M 2 0.601562 L 38 0.601562 L 38 25 L 2 25 Z M 2 0.601562 " clip-rule="nonzero"/></clipPath><mask id="b9487b2ee3"><g filter="url(#cc49b35fbd)"><rect x="-16.5" width="108" fill="#000000" y="-18.9" height="64.799999" fill-opacity="0.38"/></g></mask><clipPath id="a89d653bc7"><path d="M 0.550781 0.671875 L 34.976562 0.671875 L 34.976562 24.523438 L 0.550781 24.523438 Z M 0.550781 0.671875 " clip-rule="nonzero"/></clipPath><clipPath id="4d563d558d"><rect x="0" width="36" y="0" height="25"/></clipPath><clipPath id="074cf936c1"><path d="M 1.007812 0.671875 L 35.4375 0.671875 L 35.4375 24.523438 L 1.007812 24.523438 Z M 1.007812 0.671875 " clip-rule="nonzero"/></clipPath><clipPath id="5f11ff23b4"><path d="M 16 0.601562 L 34 0.601562 L 34 25 L 16 25 Z M 16 0.601562 " clip-rule="nonzero"/></clipPath><clipPath id="e0c72c5b18"><path d="M 16.523438 22.421875 L 30.664062 0.671875 L 33.980469 2.824219 L 19.839844 24.578125 Z M 16.523438 22.421875 " clip-rule="nonzero"/></clipPath><clipPath id="d1ef419797"><path d="M 0.320312 0.601562 L 18 0.601562 L 18 24.601562 L 0.320312 24.601562 Z M 0.320312 0.601562 " clip-rule="nonzero"/></clipPath><clipPath id="5125a545cd"><path d="M 0.523438 22.421875 L 14.664062 0.671875 L 17.980469 2.824219 L 3.839844 24.578125 Z M 0.523438 22.421875 " clip-rule="nonzero"/></clipPath><clipPath id="4229351ff6"><rect x="0" width="18" y="0" height="25"/></clipPath><clipPath id="1e08cef8ed"><path d="M 30 0.601562 L 36 0.601562 L 36 5 L 30 5 Z M 30 0.601562 " clip-rule="nonzero"/></clipPath><clipPath id="9a6418d3af"><path d="M 30.382812 0.992188 L 35.402344 0.671875 L 35.617188 4.019531 L 30.597656 4.339844 Z M 30.382812 0.992188 " clip-rule="nonzero"/></clipPath><clipPath id="c18a2b9f7d"><path d="M 33.101562 4.179688 L 30.382812 0.992188 L 35.390625 0.671875 Z M 33.101562 4.179688 " clip-rule="nonzero"/></clipPath><clipPath id="7fca1d5028"><path d="M 0.238281 0.601562 L 5.519531 0.601562 L 5.519531 4.199219 L 0.238281 4.199219 Z M 0.238281 0.601562 " clip-rule="nonzero"/></clipPath><clipPath id="97a3032207"><path d="M 0.382812 0.992188 L 5.402344 0.671875 L 5.617188 4.019531 L 0.597656 4.339844 Z M 0.382812 0.992188 " clip-rule="nonzero"/></clipPath><clipPath id="05c7ddf227"><path d="M 3.101562 4.179688 L 0.382812 0.992188 L 5.390625 0.671875 Z M 3.101562 4.179688 " clip-rule="nonzero"/></clipPath><clipPath id="f50d500ebf"><rect x="0" width="6" y="0" height="5"/></clipPath><clipPath id="e548ee1d26"><path d="M 30.628906 0.671875 L 35.242188 0.671875 L 35.242188 2.503906 L 30.628906 2.503906 Z M 30.628906 0.671875 " clip-rule="nonzero"/></clipPath><clipPath id="14df4f43eb"><path d="M 32.933594 2.503906 L 30.628906 0.671875 L 35.242188 0.671875 Z M 32.933594 2.503906 " clip-rule="nonzero"/></clipPath><clipPath id="817e394551"><path d="M 0.628906 0.671875 L 5.242188 0.671875 L 5.242188 2.503906 L 0.628906 2.503906 Z M 0.628906 0.671875 " clip-rule="nonzero"/></clipPath><clipPath id="c94cf59c93"><path d="M 2.933594 2.503906 L 0.628906 0.671875 L 5.242188 0.671875 Z M 2.933594 2.503906 " clip-rule="nonzero"/></clipPath><clipPath id="e0fea58eec"><rect x="0" width="6" y="0" height="3"/></clipPath><clipPath id="1698927c1d"><path d="M 2 12 L 13 12 L 13 25 L 2 25 Z M 2 12 " clip-rule="nonzero"/></clipPath><clipPath id="3d41834034"><path d="M 2.550781 22.210938 L 8.785156 12.621094 L 12.097656 14.777344 L 5.863281 24.367188 Z M 2.550781 22.210938 " clip-rule="nonzero"/></clipPath><clipPath id="0d3ecd0877"><path d="M 0.398438 0.601562 L 10.238281 0.601562 L 10.238281 12.601562 L 0.398438 12.601562 Z M 0.398438 0.601562 " clip-rule="nonzero"/></clipPath><clipPath id="fd672215f5"><path d="M 0.550781 10.210938 L 6.785156 0.621094 L 10.097656 2.777344 L 3.863281 12.367188 Z M 0.550781 10.210938 " clip-rule="nonzero"/></clipPath><clipPath id="d5bc57a6ab"><rect x="0" width="11" y="0" height="13"/></clipPath><clipPath id="1093acf382"><path d="M 1 20 L 6 20 L 6 25 L 1 25 Z M 1 20 " clip-rule="nonzero"/></clipPath><clipPath id="036209067f"><path d="M 3.964844 20.898438 L 5.6875 24.515625 L 1.875 26.335938 L 0.148438 22.71875 Z M 3.964844 20.898438 " clip-rule="nonzero"/></clipPath><clipPath id="acb5c6dfb4"><path d="M 1.019531 24.519531 L 3.964844 20.898438 L 5.6875 24.515625 Z M 1.019531 24.519531 " clip-rule="nonzero"/></clipPath><clipPath id="3ef4baf63f"><path d="M 0 0.761719 L 4.761719 0.761719 L 4.761719 4.601562 L 0 4.601562 Z M 0 0.761719 " clip-rule="nonzero"/></clipPath><clipPath id="75c116df4b"><path d="M 2.964844 0.898438 L 4.6875 4.515625 L 0.875 6.335938 L -0.851562 2.71875 Z M 2.964844 0.898438 " clip-rule="nonzero"/></clipPath><clipPath id="2750762535"><path d="M 0.0195312 4.519531 L 2.964844 0.898438 L 4.6875 4.515625 Z M 0.0195312 4.519531 " clip-rule="nonzero"/></clipPath><clipPath id="bf82f5d944"><rect x="0" width="5" y="0" height="5"/></clipPath><clipPath id="984142fa97"><path d="M 1 20 L 6 20 L 6 25 L 1 25 Z M 1 20 " clip-rule="nonzero"/></clipPath><clipPath id="43d83be90a"><path d="M 3.59375 20.53125 L 5.6875 23.949219 L 2.085938 26.160156 L -0.0117188 22.742188 Z M 3.59375 20.53125 " clip-rule="nonzero"/></clipPath><clipPath id="e02fd614e4"><path d="M 1.046875 24.445312 L 3.59375 20.53125 L 5.6875 23.949219 Z M 1.046875 24.445312 " clip-rule="nonzero"/></clipPath><clipPath id="e0b962bf6f"><path d="M 0 0.519531 L 4.761719 0.519531 L 4.761719 4.601562 L 0 4.601562 Z M 0 0.519531 " clip-rule="nonzero"/></clipPath><clipPath id="dcc4697b53"><path d="M 2.59375 0.53125 L 4.6875 3.949219 L 1.085938 6.160156 L -1.011719 2.742188 Z M 2.59375 0.53125 " clip-rule="nonzero"/></clipPath><clipPath id="8b5bb3de59"><path d="M 0.046875 4.445312 L 2.59375 0.53125 L 4.6875 3.949219 Z M 0.046875 4.445312 " clip-rule="nonzero"/></clipPath><clipPath id="4bd1650edf"><rect x="0" width="5" y="0" height="5"/></clipPath><clipPath id="e97b3c4af4"><path d="M 8 12 L 14 12 L 14 17 L 8 17 Z M 8 12 " clip-rule="nonzero"/></clipPath><clipPath id="930d615506"><path d="M 8.507812 12.945312 L 13.527344 12.625 L 13.742188 15.972656 L 8.722656 16.292969 Z M 8.507812 12.945312 " clip-rule="nonzero"/></clipPath><clipPath id="d6c3ab42d2"><path d="M 11.226562 16.132812 L 8.507812 12.945312 L 13.515625 12.625 Z M 11.226562 16.132812 " clip-rule="nonzero"/></clipPath><clipPath id="4ae1c51a77"><path d="M 0.398438 0.601562 L 5.679688 0.601562 L 5.679688 4.199219 L 0.398438 4.199219 Z M 0.398438 0.601562 " clip-rule="nonzero"/></clipPath><clipPath id="30747b9a26"><path d="M 0.507812 0.945312 L 5.527344 0.625 L 5.742188 3.972656 L 0.722656 4.292969 Z M 0.507812 0.945312 " clip-rule="nonzero"/></clipPath><clipPath id="d129b058aa"><path d="M 3.226562 4.132812 L 0.507812 0.945312 L 5.515625 0.625 Z M 3.226562 4.132812 " clip-rule="nonzero"/></clipPath><clipPath id="6f3f5ef414"><rect x="0" width="6" y="0" height="5"/></clipPath><clipPath id="7450d6f107"><path d="M 8.753906 12.625 L 13.367188 12.625 L 13.367188 14.457031 L 8.753906 14.457031 Z M 8.753906 12.625 " clip-rule="nonzero"/></clipPath><clipPath id="23d1bad3e3"><path d="M 11.058594 14.457031 L 8.753906 12.625 L 13.367188 12.625 Z M 11.058594 14.457031 " clip-rule="nonzero"/></clipPath><clipPath id="20487d811a"><path d="M 0.753906 0.625 L 5.367188 0.625 L 5.367188 2.457031 L 0.753906 2.457031 Z M 0.753906 0.625 " clip-rule="nonzero"/></clipPath><clipPath id="4d434a3d13"><path d="M 3.058594 2.457031 L 0.753906 0.625 L 5.367188 0.625 Z M 3.058594 2.457031 " clip-rule="nonzero"/></clipPath><clipPath id="51782f0725"><rect x="0" width="6" y="0" height="3"/></clipPath><clipPath id="d2e5ae9068"><path d="M 16.523438 20.351562 L 19.820312 20.351562 L 19.820312 24.578125 L 16.523438 24.578125 Z M 16.523438 20.351562 " clip-rule="nonzero"/></clipPath><clipPath id="acf3745318"><path d="M 18.171875 20.359375 L 19.820312 24.578125 L 16.523438 24.578125 Z M 18.171875 20.359375 " clip-rule="nonzero"/></clipPath><clipPath id="42f24b7a6d"><path d="M 0.523438 0.351562 L 3.820312 0.351562 L 3.820312 4.578125 L 0.523438 4.578125 Z M 0.523438 0.351562 " clip-rule="nonzero"/></clipPath><clipPath id="061b3cbd68"><path d="M 2.171875 0.359375 L 3.820312 4.578125 L 0.523438 4.578125 Z M 2.171875 0.359375 " clip-rule="nonzero"/></clipPath><clipPath id="b75d9788d9"><rect x="0" width="4" y="0" height="5"/></clipPath><clipPath id="903dc4ed79"><path d="M 10 12 L 20 12 L 20 25 L 10 25 Z M 10 12 " clip-rule="nonzero"/></clipPath><clipPath id="e7ffcff45a"><path d="M 16.476562 24.574219 L 10.238281 14.738281 L 13.578125 12.621094 L 19.816406 22.457031 Z M 16.476562 24.574219 " clip-rule="nonzero"/></clipPath><clipPath id="bff9b1922f"><path d="M 0.078125 0.601562 L 9.921875 0.601562 L 9.921875 12.601562 L 0.078125 12.601562 Z M 0.078125 0.601562 " clip-rule="nonzero"/></clipPath><clipPath id="7b7b02df57"><path d="M 6.476562 12.574219 L 0.238281 2.738281 L 3.578125 0.621094 L 9.816406 10.457031 Z M 6.476562 12.574219 " clip-rule="nonzero"/></clipPath><clipPath id="1906b20d58"><rect x="0" width="10" y="0" height="13"/></clipPath><clipPath id="b89ee0dfaf"><path d="M 0.0390625 1 L 4 1 L 4 6 L 0.0390625 6 Z M 0.0390625 1 " clip-rule="nonzero"/></clipPath><clipPath id="8fe4aeb7a8"><rect x="0" width="25" y="0" height="7"/></clipPath><clipPath id="5f814c935f"><path d="M 36 11 L 74.878906 11 L 74.878906 21 L 36 21 Z M 36 11 " clip-rule="nonzero"/></clipPath><clipPath id="d1c90796e2"><rect x="0" width="39" y="0" height="10"/></clipPath><clipPath id="0bc928b5e8"><rect x="0" width="75" y="0" height="27"/></clipPath></defs><g transform="matrix(1, 0, 0, 1, 0, 9)"><g clip-path="url(#0bc928b5e8)"><g clip-path="url(#b65ddfc0f6)"><g mask="url(#b9487b2ee3)"><g transform="matrix(1, 0, 0, 1, 2, 0)"><g clip-path="url(#4d563d558d)"><g clip-path="url(#a89d653bc7)"><path fill="#000000" d="M 0.554688 24.523438 L 8.320312 12.59375 L 13.097656 12.59375 L 17.757812 19.769531 L 22.425781 12.59375 L 17.757812 5.425781 L 13.097656 12.59375 L 10.703125 8.921875 L 16.085938 0.671875 L 19.441406 0.671875 L 24.8125 8.921875 L 30.191406 0.671875 L 34.972656 0.671875 L 27.207031 12.59375 L 24.8125 16.261719 L 29.59375 16.261719 L 34.972656 24.523438 L 30.191406 24.523438 L 24.8125 16.261719 L 19.441406 24.523438 L 16.085938 24.523438 L 10.703125 16.261719 L 5.332031 24.523438 Z M 0.554688 24.523438 " fill-opacity="1" fill-rule="evenodd"/></g></g></g></g></g><g clip-path="url(#074cf936c1)"><path fill="#000000" d="M 1.015625 24.523438 L 8.777344 12.59375 L 13.558594 12.59375 L 18.21875 19.769531 L 22.886719 12.59375 L 18.21875 5.425781 L 13.558594 12.59375 L 11.164062 8.921875 L 16.542969 0.671875 L 19.902344 0.671875 L 25.273438 8.921875 L 30.652344 0.671875 L 35.429688 0.671875 L 27.667969 12.59375 L 25.273438 16.261719 L 30.050781 16.261719 L 35.429688 24.523438 L 30.652344 24.523438 L 25.273438 16.261719 L 19.902344 24.523438 L 16.542969 24.523438 L 11.164062 16.261719 L 5.792969 24.523438 Z M 1.015625 24.523438 " fill-opacity="1" fill-rule="evenodd"/></g><g clip-path="url(#5f11ff23b4)"><g clip-path="url(#e0c72c5b18)"><g transform="matrix(1, 0, 0, 1, 16, 0)"><g clip-path="url(#4229351ff6)"><g clip-path="url(#d1ef419797)"><g clip-path="url(#5125a545cd)"><path fill="#000000" d="M 0.523438 22.421875 L 14.664062 0.667969 L 17.980469 2.824219 L 3.839844 24.578125 Z M 0.523438 22.421875 " fill-opacity="1" fill-rule="nonzero"/></g></g></g></g></g></g><g clip-path="url(#1e08cef8ed)"><g clip-path="url(#9a6418d3af)"><g clip-path="url(#c18a2b9f7d)"><g transform="matrix(1, 0, 0, 1, 30, 0)"><g clip-path="url(#f50d500ebf)"><g clip-path="url(#7fca1d5028)"><g clip-path="url(#97a3032207)"><g clip-path="url(#05c7ddf227)"><path fill="#000000" d="M 0.382812 0.992188 L 5.390625 0.671875 L 5.605469 4.019531 L 0.597656 4.339844 Z M 0.382812 0.992188 " fill-opacity="1" fill-rule="nonzero"/></g></g></g></g></g></g></g></g><g clip-path="url(#e548ee1d26)"><g clip-path="url(#14df4f43eb)"><g transform="matrix(1, 0, 0, 1, 30, 0)"><g clip-path="url(#e0fea58eec)"><g clip-path="url(#817e394551)"><g clip-path="url(#c94cf59c93)"><path fill="#000000" d="M 0.628906 0.671875 L 5.242188 0.671875 L 5.242188 2.503906 L 0.628906 2.503906 Z M 0.628906 0.671875 " fill-opacity="1" fill-rule="nonzero"/></g></g></g></g></g></g><g clip-path="url(#1698927c1d)"><g clip-path="url(#3d41834034)"><g transform="matrix(1, 0, 0, 1, 2, 12)"><g clip-path="url(#d5bc57a6ab)"><g clip-path="url(#0d3ecd0877)"><g clip-path="url(#fd672215f5)"><path fill="#000000" d="M 0.550781 10.210938 L 6.789062 0.617188 L 10.101562 2.773438 L 3.863281 12.367188 Z M 0.550781 10.210938 " fill-opacity="1" fill-rule="nonzero"/></g></g></g></g></g></g><g clip-path="url(#1093acf382)"><g clip-path="url(#036209067f)"><g clip-path="url(#acb5c6dfb4)"><g transform="matrix(1, 0, 0, 1, 1, 20)"><g clip-path="url(#bf82f5d944)"><g clip-path="url(#3ef4baf63f)"><g clip-path="url(#75c116df4b)"><g clip-path="url(#2750762535)"><path fill="#0a0a0a" d="M 2.964844 0.898438 L 4.6875 4.515625 L 0.886719 6.328125 L -0.835938 2.710938 Z M 2.964844 0.898438 " fill-opacity="1" fill-rule="nonzero"/></g></g></g></g></g></g></g></g><g clip-path="url(#984142fa97)"><g clip-path="url(#43d83be90a)"><g clip-path="url(#e02fd614e4)"><g transform="matrix(1, 0, 0, 1, 1, 20)"><g clip-path="url(#4bd1650edf)"><g clip-path="url(#e0b962bf6f)"><g clip-path="url(#dcc4697b53)"><g clip-path="url(#8b5bb3de59)"><path fill="#000000" d="M 2.59375 0.53125 L 4.6875 3.949219 L 1.101562 6.152344 L -0.996094 2.734375 Z M 2.59375 0.53125 " fill-opacity="1" fill-rule="nonzero"/></g></g></g></g></g></g></g></g><g clip-path="url(#e97b3c4af4)"><g clip-path="url(#930d615506)"><g clip-path="url(#d6c3ab42d2)"><g transform="matrix(1, 0, 0, 1, 8, 12)"><g clip-path="url(#6f3f5ef414)"><g clip-path="url(#4ae1c51a77)"><g clip-path="url(#30747b9a26)"><g clip-path="url(#d129b058aa)"><path fill="#000000" d="M 0.507812 0.945312 L 5.515625 0.625 L 5.730469 3.972656 L 0.722656 4.292969 Z M 0.507812 0.945312 " fill-opacity="1" fill-rule="nonzero"/></g></g></g></g></g></g></g></g><g clip-path="url(#7450d6f107)"><g clip-path="url(#23d1bad3e3)"><g transform="matrix(1, 0, 0, 1, 8, 12)"><g clip-path="url(#51782f0725)"><g clip-path="url(#20487d811a)"><g clip-path="url(#4d434a3d13)"><path fill="#000000" d="M 0.753906 0.625 L 5.367188 0.625 L 5.367188 2.457031 L 0.753906 2.457031 Z M 0.753906 0.625 " fill-opacity="1" fill-rule="nonzero"/></g></g></g></g></g></g><g clip-path="url(#d2e5ae9068)"><g clip-path="url(#acf3745318)"><g transform="matrix(1, 0, 0, 1, 16, 20)"><g clip-path="url(#b75d9788d9)"><g clip-path="url(#42f24b7a6d)"><g clip-path="url(#061b3cbd68)"><path fill="#000000" d="M 3.820312 4.578125 L 0.523438 4.578125 L 0.523438 0.363281 L 3.820312 0.363281 Z M 3.820312 4.578125 " fill-opacity="1" fill-rule="nonzero"/></g></g></g></g></g></g><g clip-path="url(#903dc4ed79)"><g clip-path="url(#e7ffcff45a)"><g transform="matrix(1, 0, 0, 1, 10, 12)"><g clip-path="url(#1906b20d58)"><g clip-path="url(#bff9b1922f)"><g clip-path="url(#7b7b02df57)"><path fill="#000000" d="M 6.476562 12.574219 L 0.242188 2.742188 L 3.578125 0.625 L 9.816406 10.457031 Z M 6.476562 12.574219 " fill-opacity="1" fill-rule="nonzero"/></g></g></g></g></g></g><g transform="matrix(1, 0, 0, 1, 41, 7)"><g clip-path="url(#8fe4aeb7a8)"><g clip-path="url(#b89ee0dfaf)"><g fill="#000000" fill-opacity="1"><g transform="translate(0.16335, 5.191996)"><g><path d="M 3.546875 -3.328125 L 3.546875 0 L 2.625 0 L 1.359375 -1.515625 L 1.359375 0 L 0.265625 0 L 0.265625 -3.328125 L 1.1875 -3.328125 L 2.453125 -1.8125 L 2.453125 -3.328125 Z M 3.546875 -3.328125 "/></g></g></g></g><g fill="#000000" fill-opacity="1"><g transform="translate(4.434296, 5.191996)"><g><path d="M 3.03125 -0.84375 L 3.03125 0 L 0.265625 0 L 0.265625 -3.328125 L 2.96875 -3.328125 L 2.96875 -2.484375 L 1.375 -2.484375 L 1.375 -2.09375 L 2.78125 -2.09375 L 2.78125 -1.28125 L 1.375 -1.28125 L 1.375 -0.84375 Z M 3.03125 -0.84375 "/></g></g></g><g fill="#000000" fill-opacity="1"><g transform="translate(8.082205, 5.191996)"><g><path d="M 1.859375 0.078125 C 1.347656 0.078125 0.953125 -0.0546875 0.671875 -0.328125 C 0.390625 -0.609375 0.25 -1 0.25 -1.5 L 0.25 -3.328125 L 1.359375 -3.328125 L 1.359375 -1.53125 C 1.359375 -1.28125 1.398438 -1.097656 1.484375 -0.984375 C 1.578125 -0.878906 1.707031 -0.828125 1.875 -0.828125 C 2.039062 -0.828125 2.164062 -0.878906 2.25 -0.984375 C 2.332031 -1.097656 2.375 -1.28125 2.375 -1.53125 L 2.375 -3.328125 L 3.484375 -3.328125 L 3.484375 -1.5 C 3.484375 -1 3.335938 -0.609375 3.046875 -0.328125 C 2.765625 -0.0546875 2.367188 0.078125 1.859375 0.078125 Z M 1.859375 0.078125 "/></g></g></g><g fill="#000000" fill-opacity="1"><g transform="translate(12.258031, 5.191996)"><g><path d="M 1.703125 -0.84375 L 1.390625 -0.84375 L 1.390625 0 L 0.265625 0 L 0.265625 -3.328125 L 1.875 -3.328125 C 2.175781 -3.328125 2.441406 -3.273438 2.671875 -3.171875 C 2.898438 -3.066406 3.078125 -2.921875 3.203125 -2.734375 C 3.328125 -2.546875 3.390625 -2.328125 3.390625 -2.078125 C 3.390625 -1.835938 3.332031 -1.628906 3.21875 -1.453125 C 3.113281 -1.273438 2.960938 -1.132812 2.765625 -1.03125 L 3.453125 0 L 2.265625 0 Z M 2.25 -2.078125 C 2.25 -2.191406 2.210938 -2.28125 2.140625 -2.34375 C 2.066406 -2.414062 1.953125 -2.453125 1.796875 -2.453125 L 1.390625 -2.453125 L 1.390625 -1.6875 L 1.796875 -1.6875 C 1.953125 -1.6875 2.066406 -1.71875 2.140625 -1.78125 C 2.210938 -1.851562 2.25 -1.953125 2.25 -2.078125 Z M 2.25 -2.078125 "/></g></g></g><g fill="#000000" fill-opacity="1"><g transform="translate(16.248373, 5.191996)"><g><path d="M 2.53125 -0.578125 L 1.265625 -0.578125 L 1.046875 0 L -0.09375 0 L 1.359375 -3.328125 L 2.46875 -3.328125 L 3.921875 0 L 2.765625 0 Z M 2.234375 -1.390625 L 1.90625 -2.21875 L 1.578125 -1.390625 Z M 2.234375 -1.390625 "/></g></g></g><g fill="#000000" fill-opacity="1"><g transform="translate(20.528831, 5.191996)"><g><path d="M 0.265625 -3.328125 L 1.390625 -3.328125 L 1.390625 -0.875 L 2.890625 -0.875 L 2.890625 0 L 0.265625 0 Z M 0.265625 -3.328125 "/></g></g></g></g></g><g clip-path="url(#5f814c935f)"><g transform="matrix(1, 0, 0, 1, 36, 11)"><g clip-path="url(#d1c90796e2)"><g fill="#000000" fill-opacity="1"><g transform="translate(0.21238, 6.8894)"><g><path d="M 1.578125 0.0625 C 1.316406 0.0625 1.078125 0 0.859375 -0.125 C 0.640625 -0.257812 0.460938 -0.4375 0.328125 -0.65625 C 0.203125 -0.875 0.140625 -1.113281 0.140625 -1.375 C 0.140625 -1.644531 0.203125 -1.890625 0.328125 -2.109375 C 0.460938 -2.328125 0.640625 -2.5 0.859375 -2.625 C 1.078125 -2.75 1.316406 -2.8125 1.578125 -2.8125 C 1.835938 -2.8125 2.078125 -2.75 2.296875 -2.625 C 2.515625 -2.5 2.6875 -2.328125 2.8125 -2.109375 C 2.945312 -1.890625 3.015625 -1.644531 3.015625 -1.375 C 3.015625 -1.113281 2.945312 -0.875 2.8125 -0.65625 C 2.6875 -0.4375 2.515625 -0.257812 2.296875 -0.125 C 2.078125 0 1.835938 0.0625 1.578125 0.0625 Z M 1.578125 -0.34375 C 1.765625 -0.34375 1.929688 -0.382812 2.078125 -0.46875 C 2.234375 -0.5625 2.351562 -0.6875 2.4375 -0.84375 C 2.53125 -1 2.578125 -1.175781 2.578125 -1.375 C 2.578125 -1.570312 2.53125 -1.75 2.4375 -1.90625 C 2.351562 -2.0625 2.234375 -2.1875 2.078125 -2.28125 C 1.929688 -2.375 1.765625 -2.421875 1.578125 -2.421875 C 1.398438 -2.421875 1.234375 -2.375 1.078125 -2.28125 C 0.921875 -2.1875 0.796875 -2.0625 0.703125 -1.90625 C 0.617188 -1.75 0.578125 -1.570312 0.578125 -1.375 C 0.578125 -1.175781 0.617188 -1 0.703125 -0.84375 C 0.796875 -0.6875 0.921875 -0.5625 1.078125 -0.46875 C 1.234375 -0.382812 1.398438 -0.34375 1.578125 -0.34375 Z M 1.578125 -0.34375 "/></g></g></g><g fill="#000000" fill-opacity="1"><g transform="translate(7.534995, 6.8894)"><g><path d="M 1.859375 -2.78125 L 1.859375 -2.390625 L 1.578125 -2.390625 C 1.421875 -2.390625 1.28125 -2.351562 1.15625 -2.28125 C 1.039062 -2.21875 0.945312 -2.125 0.875 -2 C 0.800781 -1.875 0.765625 -1.734375 0.765625 -1.578125 L 0.765625 0 L 0.34375 0 L 0.34375 -2.75 L 0.765625 -2.75 L 0.765625 -2.359375 C 0.867188 -2.503906 0.992188 -2.609375 1.140625 -2.671875 C 1.296875 -2.742188 1.457031 -2.78125 1.625 -2.78125 Z M 1.859375 -2.78125 "/></g></g></g><g fill="#000000" fill-opacity="1"><g transform="translate(13.52587, 6.8894)"><g><path d="M 1.796875 -2.8125 C 2.046875 -2.8125 2.28125 -2.75 2.5 -2.625 C 2.71875 -2.5 2.890625 -2.328125 3.015625 -2.109375 C 3.148438 -1.890625 3.21875 -1.644531 3.21875 -1.375 C 3.21875 -1.113281 3.148438 -0.875 3.015625 -0.65625 C 2.890625 -0.4375 2.71875 -0.257812 2.5 -0.125 C 2.28125 0 2.046875 0.0625 1.796875 0.0625 C 1.585938 0.0625 1.394531 0.0195312 1.21875 -0.0625 C 1.050781 -0.15625 0.90625 -0.273438 0.78125 -0.421875 L 0.78125 0 L 0.359375 0 L 0.359375 -4.046875 L 0.78125 -4.046875 L 0.78125 -2.328125 C 0.90625 -2.472656 1.050781 -2.585938 1.21875 -2.671875 C 1.394531 -2.765625 1.585938 -2.8125 1.796875 -2.8125 Z M 1.765625 -0.34375 C 1.953125 -0.34375 2.117188 -0.382812 2.265625 -0.46875 C 2.421875 -0.5625 2.539062 -0.6875 2.625 -0.84375 C 2.71875 -1 2.765625 -1.175781 2.765625 -1.375 C 2.765625 -1.570312 2.71875 -1.75 2.625 -1.90625 C 2.539062 -2.0625 2.421875 -2.1875 2.265625 -2.28125 C 2.117188 -2.375 1.953125 -2.421875 1.765625 -2.421875 C 1.585938 -2.421875 1.421875 -2.375 1.265625 -2.28125 C 1.109375 -2.1875 0.984375 -2.0625 0.890625 -1.90625 C 0.804688 -1.75 0.765625 -1.570312 0.765625 -1.375 C 0.765625 -1.175781 0.804688 -1 0.890625 -0.84375 C 0.984375 -0.6875 1.109375 -0.5625 1.265625 -0.46875 C 1.421875 -0.382812 1.585938 -0.34375 1.765625 -0.34375 Z M 1.765625 -0.34375 "/></g></g></g><g fill="#000000" fill-opacity="1"><g transform="translate(21.039536, 6.8894)"><g><path d="M 0.765625 0 L 0.34375 0 L 0.34375 -2.75 L 0.765625 -2.75 Z M 0.78125 -3.34375 L 0.3125 -3.34375 L 0.3125 -3.515625 L 0.78125 -3.515625 Z M 0.78125 -3.34375 "/></g></g></g><g fill="#000000" fill-opacity="1"><g transform="translate(26.299919, 6.8894)"><g><path d="M 1.546875 -2.640625 L 0.84375 -2.640625 L 0.84375 -0.84375 C 0.84375 -0.707031 0.878906 -0.597656 0.953125 -0.515625 C 1.035156 -0.429688 1.148438 -0.390625 1.296875 -0.390625 L 1.546875 -0.390625 L 1.546875 0 L 1.265625 0 C 1.015625 0 0.8125 -0.0703125 0.65625 -0.21875 C 0.5 -0.375 0.421875 -0.570312 0.421875 -0.8125 L 0.421875 -2.640625 L -0.03125 -2.640625 L -0.03125 -2.75 L 0.421875 -2.75 L 0.421875 -3.484375 L 0.84375 -3.484375 L 0.84375 -2.75 L 1.546875 -2.75 Z M 1.546875 -2.640625 "/></g></g></g><g fill="#000000" fill-opacity="1"><g transform="translate(32.037932, 6.8894)"><g><path d="M 1.28125 0.0625 C 0.957031 0.0625 0.695312 -0.0234375 0.5 -0.203125 C 0.300781 -0.378906 0.195312 -0.617188 0.1875 -0.921875 L 0.609375 -0.921875 C 0.617188 -0.734375 0.679688 -0.585938 0.796875 -0.484375 C 0.910156 -0.390625 1.070312 -0.34375 1.28125 -0.34375 C 1.457031 -0.34375 1.597656 -0.375 1.703125 -0.4375 C 1.816406 -0.507812 1.875 -0.613281 1.875 -0.75 C 1.875 -0.851562 1.84375 -0.929688 1.78125 -0.984375 C 1.726562 -1.046875 1.65625 -1.09375 1.5625 -1.125 C 1.476562 -1.15625 1.351562 -1.191406 1.1875 -1.234375 C 0.988281 -1.273438 0.828125 -1.316406 0.703125 -1.359375 C 0.585938 -1.410156 0.484375 -1.488281 0.390625 -1.59375 C 0.304688 -1.695312 0.265625 -1.84375 0.265625 -2.03125 C 0.265625 -2.175781 0.304688 -2.304688 0.390625 -2.421875 C 0.484375 -2.546875 0.601562 -2.640625 0.75 -2.703125 C 0.90625 -2.773438 1.070312 -2.8125 1.25 -2.8125 C 1.539062 -2.8125 1.78125 -2.722656 1.96875 -2.546875 C 2.15625 -2.378906 2.257812 -2.148438 2.28125 -1.859375 L 1.859375 -1.859375 C 1.835938 -2.046875 1.769531 -2.1875 1.65625 -2.28125 C 1.550781 -2.375 1.410156 -2.421875 1.234375 -2.421875 C 1.085938 -2.421875 0.960938 -2.382812 0.859375 -2.3125 C 0.753906 -2.238281 0.703125 -2.144531 0.703125 -2.03125 C 0.703125 -1.9375 0.734375 -1.859375 0.796875 -1.796875 C 0.859375 -1.742188 0.929688 -1.703125 1.015625 -1.671875 C 1.097656 -1.640625 1.210938 -1.609375 1.359375 -1.578125 C 1.566406 -1.523438 1.734375 -1.472656 1.859375 -1.421875 C 1.984375 -1.378906 2.085938 -1.300781 2.171875 -1.1875 C 2.265625 -1.082031 2.3125 -0.9375 2.3125 -0.75 C 2.3125 -0.507812 2.210938 -0.3125 2.015625 -0.15625 C 1.816406 -0.0078125 1.570312 0.0625 1.28125 0.0625 Z M 1.28125 0.0625 "/></g></g></g></g></g></g></g></g></svg>